<?xml version="1.0" encoding="UTF-8" standalone="no"?>
<!DOCTYPE svg PUBLIC "-//W3C//DTD SVG 1.1//EN"
 "http://www.w3.org/Graphics/SVG/1.1/DTD/svg11.dtd">
<!-- Generated by graphviz version 2.43.0 (0)
 -->
<!-- Title: PlantV2OtaFlow Pages: 1 -->
<svg width="894pt" height="830pt"
 viewBox="0.00 0.00 894.20 830.20" xmlns="http://www.w3.org/2000/svg" xmlns:xlink="http://www.w3.org/1999/xlink">
<g id="graph0" class="graph" transform="scale(1 1) rotate(0) translate(21.6 808.6)">
<title>PlantV2OtaFlow</title>
<polygon fill="white" stroke="transparent" points="-21.6,21.6 -21.6,-808.6 872.6,-808.6 872.6,21.6 -21.6,21.6"/>
<!-- gatt -->
<g id="node1" class="node">
<title>gatt</title>
<path fill="#fce7f3" stroke="#be185d" stroke-width="1.15" d="M583,-787C583,-787 425,-787 425,-787 419,-787 413,-781 413,-775 413,-775 413,-761 413,-761 413,-755 419,-749 425,-749 425,-749 583,-749 583,-749 589,-749 595,-755 595,-761 595,-761 595,-775 595,-775 595,-781 589,-787 583,-787"/>
<text text-anchor="middle" x="504" y="-771.2" font-family="Noto Sans CJK SC" font-size="11.00">BLE GATT 写入回调</text>
<text text-anchor="middle" x="504" y="-759.2" font-family="Noto Sans CJK SC" font-size="11.00">仅加密且已绑定的链路允许进入</text>
</g>
<!-- queue -->
<g id="node2" class="node">
<title>queue</title>
<path fill="#fce7f3" stroke="#be185d" stroke-width="1.15" d="M572,-710C572,-710 436,-710 436,-710 430,-710 424,-704 424,-698 424,-698 424,-684 424,-684 424,-678 430,-672 436,-672 436,-672 572,-672 572,-672 578,-672 584,-678 584,-684 584,-684 584,-698 584,-698 584,-704 578,-710 572,-710"/>
<text text-anchor="middle" x="504" y="-694.2" font-family="Noto Sans CJK SC" font-size="11.00">ESP BLE Adapter 静态队列</text>
<text text-anchor="middle" x="504" y="-682.2" font-family="Noto Sans CJK SC" font-size="11.00">避免在回调中执行业务逻辑</text>
</g>
<!-- gatt&#45;&gt;queue -->
<g id="edge1" class="edge">
<title>gatt&#45;&gt;queue</title>
<path fill="none" stroke="#64748b" stroke-width="1.2" d="M504,-748.84C504,-739.43 504,-727.76 504,-717.46"/>
<polygon fill="#64748b" stroke="#64748b" stroke-width="1.2" points="506.45,-717.25 504,-710.25 501.55,-717.25 506.45,-717.25"/>
</g>
<!-- decode -->
<g id="node3" class="node">
<title>decode</title>
<path fill="#fce7f3" stroke="#be185d" stroke-width="1.15" d="M594.5,-633C594.5,-633 413.5,-633 413.5,-633 407.5,-633 401.5,-627 401.5,-621 401.5,-621 401.5,-607 401.5,-607 401.5,-601 407.5,-595 413.5,-595 413.5,-595 594.5,-595 594.5,-595 600.5,-595 606.5,-601 606.5,-607 606.5,-607 606.5,-621 606.5,-621 606.5,-627 600.5,-633 594.5,-633"/>
<text text-anchor="middle" x="504" y="-617.2" font-family="Noto Sans CJK SC" font-size="11.00">CommunicationService.poll</text>
<text text-anchor="middle" x="504" y="-605.2" font-family="Noto Sans CJK SC" font-size="11.00">Decoder 校验帧、长度、命令与参数</text>
</g>
<!-- queue&#45;&gt;decode -->
<g id="edge2" class="edge">
<title>queue&#45;&gt;decode</title>
<path fill="none" stroke="#64748b" stroke-width="1.2" d="M504,-671.84C504,-662.43 504,-650.76 504,-640.46"/>
<polygon fill="#64748b" stroke="#64748b" stroke-width="1.2" points="506.45,-640.25 504,-633.25 501.55,-640.25 506.45,-640.25"/>
</g>
<!-- kind -->
<g id="node4" class="node">
<title>kind</title>
<path fill="#fff7ed" stroke="#b45309" stroke-width="1.15" d="M492.45,-552.74C492.45,-552.74 423.55,-533.26 423.55,-533.26 417.77,-531.63 417.77,-528.37 423.55,-526.74 423.55,-526.74 492.45,-507.26 492.45,-507.26 498.23,-505.63 509.77,-505.63 515.55,-507.26 515.55,-507.26 584.45,-526.74 584.45,-526.74 590.23,-528.37 590.23,-531.63 584.45,-533.26 584.45,-533.26 515.55,-552.74 515.55,-552.74 509.77,-554.37 498.23,-554.37 492.45,-552.74"/>
<text text-anchor="middle" x="504" y="-527.2" font-family="Noto Sans CJK SC" font-size="11.00">OTA 命令类型</text>
</g>
<!-- decode&#45;&gt;kind -->
<g id="edge3" class="edge">
<title>decode&#45;&gt;kind</title>
<path fill="none" stroke="#64748b" stroke-width="1.2" d="M504,-594.8C504,-585.6 504,-574.15 504,-563.51"/>
<polygon fill="#64748b" stroke="#64748b" stroke-width="1.2" points="506.45,-563.3 504,-556.3 501.55,-563.3 506.45,-563.3"/>
</g>
<!-- begin -->
<g id="node5" class="node">
<title>begin</title>
<path fill="#fce7f3" stroke="#be185d" stroke-width="1.15" d="M601,-456C601,-456 407,-456 407,-456 401,-456 395,-450 395,-444 395,-444 395,-406 395,-406 395,-400 401,-394 407,-394 407,-394 601,-394 601,-394 607,-394 613,-400 613,-406 613,-406 613,-444 613,-444 613,-450 607,-456 601,-456"/>
<text text-anchor="middle" x="504" y="-440.2" font-family="Noto Sans CJK SC" font-size="11.00">BeginOta</text>
<text text-anchor="middle" x="504" y="-428.2" font-family="Noto Sans CJK SC" font-size="11.00">校验 metadata</text>
<text text-anchor="middle" x="504" y="-416.2" font-family="Noto Sans CJK SC" font-size="11.00">必要时先退出 Light Sleep 或完成 Sleep</text>
<text text-anchor="middle" x="504" y="-404.2" font-family="Noto Sans CJK SC" font-size="11.00">Lifecycle &#45;&gt; Updating；ota.begin</text>
</g>
<!-- kind&#45;&gt;begin -->
<g id="edge4" class="edge">
<title>kind&#45;&gt;begin</title>
<path fill="none" stroke="#64748b" stroke-width="1.2" d="M504,-503.8C504,-491.64 504,-476.81 504,-463.36"/>
<polygon fill="#64748b" stroke="#64748b" stroke-width="1.2" points="506.45,-463.07 504,-456.07 501.55,-463.07 506.45,-463.07"/>
<text text-anchor="middle" x="524" y="-477.8" font-family="Noto Sans CJK SC" font-size="9.00">BeginOta</text>
</g>
<!-- chunk -->
<g id="node6" class="node">
<title>chunk</title>
<path fill="#fce7f3" stroke="#be185d" stroke-width="1.15" d="M365,-346C365,-346 199,-346 199,-346 193,-346 187,-340 187,-334 187,-334 187,-308 187,-308 187,-302 193,-296 199,-296 199,-296 365,-296 365,-296 371,-296 377,-302 377,-308 377,-308 377,-334 377,-334 377,-340 371,-346 365,-346"/>
<text text-anchor="middle" x="282" y="-330.2" font-family="Noto Sans CJK SC" font-size="11.00">OtaChunk（仅 Receiving）</text>
<text text-anchor="middle" x="282" y="-318.2" font-family="Noto Sans CJK SC" font-size="11.00">要求 offset 连续、大小合法</text>
<text text-anchor="middle" x="282" y="-306.2" font-family="Noto Sans CJK SC" font-size="11.00">写入 flash 并累计 received_bytes</text>
</g>
<!-- kind&#45;&gt;chunk -->
<g id="edge5" class="edge">
<title>kind&#45;&gt;chunk</title>
<path fill="none" stroke="#64748b" stroke-width="1.2" d="M447.03,-520.09C381.7,-508.58 280.65,-486.35 258,-456 235.59,-425.98 250.14,-381.76 264.46,-352.44"/>
<polygon fill="#64748b" stroke="#64748b" stroke-width="1.2" points="266.72,-353.4 267.69,-346.05 262.35,-351.19 266.72,-353.4"/>
<text text-anchor="middle" x="318.5" y="-422.8" font-family="Noto Sans CJK SC" font-size="9.00">OtaChunk；否则 InvalidState</text>
</g>
<!-- cancel -->
<g id="node10" class="node">
<title>cancel</title>
<path fill="#f1f5f9" stroke="#64748b" stroke-width="1.15" d="M839,-444C839,-444 657,-444 657,-444 651,-444 645,-438 645,-432 645,-432 645,-418 645,-418 645,-412 651,-406 657,-406 657,-406 839,-406 839,-406 845,-406 851,-412 851,-418 851,-418 851,-432 851,-432 851,-438 845,-444 839,-444"/>
<text text-anchor="middle" x="748" y="-428.2" font-family="Noto Sans CJK SC" font-size="11.00">CancelOta 或 OTA 期间断链</text>
<text text-anchor="middle" x="748" y="-416.2" font-family="Noto Sans CJK SC" font-size="11.00">ota.abort；Lifecycle.cancel_update</text>
</g>
<!-- kind&#45;&gt;cancel -->
<g id="edge6" class="edge">
<title>kind&#45;&gt;cancel</title>
<path fill="none" stroke="#64748b" stroke-width="1.2" d="M539.48,-514.02C581.39,-496.33 651.37,-466.79 698.57,-446.87"/>
<polygon fill="#64748b" stroke="#64748b" stroke-width="1.2" points="699.58,-449.1 705.08,-444.12 697.67,-444.59 699.58,-449.1"/>
<text text-anchor="middle" x="648" y="-477.8" font-family="Noto Sans CJK SC" font-size="9.00">CancelOta</text>
</g>
<!-- begin&#45;&gt;chunk -->
<g id="edge7" class="edge">
<title>begin&#45;&gt;chunk</title>
<path fill="none" stroke="#64748b" stroke-width="1.2" d="M438.59,-393.95C407.68,-379.74 371.05,-362.92 341,-349.11"/>
<polygon fill="#64748b" stroke="#64748b" stroke-width="1.2" points="341.68,-346.72 334.29,-346.03 339.63,-351.18 341.68,-346.72"/>
<text text-anchor="middle" x="402.5" y="-367.8" font-family="Noto Sans CJK SC" font-size="9.00">成功</text>
</g>
<!-- fail -->
<g id="node11" class="node">
<title>fail</title>
<path fill="#fee2e2" stroke="#b91c1c" stroke-width="1.15" d="M506.5,-50C506.5,-50 333.5,-50 333.5,-50 327.5,-50 321.5,-44 321.5,-38 321.5,-38 321.5,-12 321.5,-12 321.5,-6 327.5,0 333.5,0 333.5,0 506.5,0 506.5,0 512.5,0 518.5,-6 518.5,-12 518.5,-12 518.5,-38 518.5,-38 518.5,-44 512.5,-50 506.5,-50"/>
<text text-anchor="middle" x="420" y="-34.2" font-family="Noto Sans CJK SC" font-size="11.00">开始、写入或验证失败</text>
<text text-anchor="middle" x="420" y="-22.2" font-family="Noto Sans CJK SC" font-size="11.00">ota.abort；Ota Failed</text>
<text text-anchor="middle" x="420" y="-10.2" font-family="Noto Sans CJK SC" font-size="11.00">Lifecycle.fail_update(recoverable)</text>
</g>
<!-- begin&#45;&gt;fail -->
<g id="edge8" class="edge">
<title>begin&#45;&gt;fail</title>
<path fill="none" stroke="#dc2626" stroke-width="1.2" d="M504,-393.65C504,-373.37 504,-346.08 504,-322 504,-322 504,-322 504,-122 504,-94.67 484.48,-71.38 464.26,-54.59"/>
<polygon fill="#dc2626" stroke="#dc2626" stroke-width="1.2" points="465.56,-52.49 458.56,-50.03 462.5,-56.31 465.56,-52.49"/>
<text text-anchor="middle" x="513.5" y="-219.8" font-family="Noto Sans CJK SC" font-size="9.00">失败</text>
</g>
<!-- chunk&#45;&gt;chunk -->
<g id="edge9" class="edge">
<title>chunk&#45;&gt;chunk</title>
<path fill="none" stroke="#64748b" stroke-width="1.2" d="M377.26,-329.6C395.82,-328.6 409,-325.73 409,-321 409,-316.89 399.09,-314.19 384.35,-312.9"/>
<polygon fill="#64748b" stroke="#64748b" stroke-width="1.2" points="384.42,-310.45 377.26,-312.4 384.07,-315.33 384.42,-310.45"/>
<text text-anchor="middle" x="423" y="-318.8" font-family="Noto Sans CJK SC" font-size="9.00">下一块</text>
</g>
<!-- finished -->
<g id="node7" class="node">
<title>finished</title>
<path fill="#fff7ed" stroke="#b45309" stroke-width="1.15" d="M175.11,-246.35C175.11,-246.35 11.89,-223.65 11.89,-223.65 5.94,-222.83 5.94,-221.17 11.89,-220.35 11.89,-220.35 175.11,-197.65 175.11,-197.65 181.06,-196.83 192.94,-196.83 198.89,-197.65 198.89,-197.65 362.11,-220.35 362.11,-220.35 368.06,-221.17 368.06,-222.83 362.11,-223.65 362.11,-223.65 198.89,-246.35 198.89,-246.35 192.94,-247.17 181.06,-247.17 175.11,-246.35"/>
<text text-anchor="middle" x="187" y="-219.2" font-family="Noto Sans CJK SC" font-size="11.00">received_bytes == image_size？</text>
</g>
<!-- chunk&#45;&gt;finished -->
<g id="edge10" class="edge">
<title>chunk&#45;&gt;finished</title>
<path fill="none" stroke="#64748b" stroke-width="1.2" d="M258.03,-295.52C244.52,-281.73 227.61,-264.46 213.68,-250.24"/>
<polygon fill="#64748b" stroke="#64748b" stroke-width="1.2" points="215.34,-248.43 208.69,-245.15 211.84,-251.86 215.34,-248.43"/>
<text text-anchor="middle" x="258" y="-269.8" font-family="Noto Sans CJK SC" font-size="9.00">FinishOta</text>
</g>
<!-- chunk&#45;&gt;fail -->
<g id="edge11" class="edge">
<title>chunk&#45;&gt;fail</title>
<path fill="none" stroke="#dc2626" stroke-width="1.2" d="M336.46,-295.84C356.45,-284.23 377.28,-268.35 390,-248 427.1,-188.64 426.86,-103.02 423.45,-57.4"/>
<polygon fill="#dc2626" stroke="#dc2626" stroke-width="1.2" points="425.87,-56.94 422.85,-50.16 420.99,-57.34 425.87,-56.94"/>
<text text-anchor="middle" x="437.5" y="-169.8" font-family="Noto Sans CJK SC" font-size="9.00">写入失败</text>
</g>
<!-- verify -->
<g id="node8" class="node">
<title>verify</title>
<path fill="#fce7f3" stroke="#be185d" stroke-width="1.15" d="M284.5,-148C284.5,-148 99.5,-148 99.5,-148 93.5,-148 87.5,-142 87.5,-136 87.5,-136 87.5,-110 87.5,-110 87.5,-104 93.5,-98 99.5,-98 99.5,-98 284.5,-98 284.5,-98 290.5,-98 296.5,-104 296.5,-110 296.5,-110 296.5,-136 296.5,-136 296.5,-142 290.5,-148 284.5,-148"/>
<text text-anchor="middle" x="192" y="-132.2" font-family="Noto Sans CJK SC" font-size="11.00">FinishOta</text>
<text text-anchor="middle" x="192" y="-120.2" font-family="Noto Sans CJK SC" font-size="11.00">verify_and_activate</text>
<text text-anchor="middle" x="192" y="-108.2" font-family="Noto Sans CJK SC" font-size="11.00">ReadyToReboot；Lifecycle 请求重启</text>
</g>
<!-- finished&#45;&gt;verify -->
<g id="edge12" class="edge">
<title>finished&#45;&gt;verify</title>
<path fill="none" stroke="#64748b" stroke-width="1.2" d="M188.29,-196.02C188.93,-183.61 189.71,-168.49 190.39,-155.32"/>
<polygon fill="#64748b" stroke="#64748b" stroke-width="1.2" points="192.84,-155.34 190.75,-148.23 187.94,-155.09 192.84,-155.34"/>
<text text-anchor="middle" x="195" y="-169.8" font-family="Noto Sans CJK SC" font-size="9.00">是</text>
</g>
<!-- finished&#45;&gt;fail -->
<g id="edge13" class="edge">
<title>finished&#45;&gt;fail</title>
<path fill="none" stroke="#dc2626" stroke-width="1.2" d="M227.66,-201.47C253.19,-188.23 286.07,-169.29 312,-148 345.54,-120.47 377.66,-82.13 398.02,-55.81"/>
<polygon fill="#dc2626" stroke="#dc2626" stroke-width="1.2" points="400.12,-57.11 402.44,-50.06 396.23,-54.12 400.12,-57.11"/>
<text text-anchor="middle" x="367" y="-120.8" font-family="Noto Sans CJK SC" font-size="9.00">否</text>
</g>
<!-- reboot -->
<g id="node9" class="node">
<title>reboot</title>
<path fill="#dbeafe" stroke="#1d4ed8" stroke-width="1.15" d="M274.5,-44C274.5,-44 109.5,-44 109.5,-44 103.5,-44 97.5,-38 97.5,-32 97.5,-32 97.5,-18 97.5,-18 97.5,-12 103.5,-6 109.5,-6 109.5,-6 274.5,-6 274.5,-6 280.5,-6 286.5,-12 286.5,-18 286.5,-18 286.5,-32 286.5,-32 286.5,-38 280.5,-44 274.5,-44"/>
<text text-anchor="middle" x="192" y="-28.2" font-family="Noto Sans CJK SC" font-size="11.00">ESP restart</text>
<text text-anchor="middle" x="192" y="-16.2" font-family="Noto Sans CJK SC" font-size="11.00">下次启动执行 boot confirmation</text>
</g>
<!-- verify&#45;&gt;reboot -->
<g id="edge14" class="edge">
<title>verify&#45;&gt;reboot</title>
<path fill="none" stroke="#64748b" stroke-width="1.2" d="M192,-97.78C192,-83.59 192,-65.69 192,-51.31"/>
<polygon fill="#64748b" stroke="#64748b" stroke-width="1.2" points="194.45,-51.16 192,-44.16 189.55,-51.16 194.45,-51.16"/>
<text text-anchor="middle" x="201.5" y="-71.8" font-family="Noto Sans CJK SC" font-size="9.00">成功</text>
</g>
<!-- verify&#45;&gt;fail -->
<g id="edge15" class="edge">
<title>verify&#45;&gt;fail</title>
<path fill="none" stroke="#dc2626" stroke-width="1.2" d="M249.24,-97.9C281.76,-84.2 322.56,-67.03 356.13,-52.89"/>
<polygon fill="#dc2626" stroke="#dc2626" stroke-width="1.2" points="357.24,-55.09 362.74,-50.11 355.33,-50.57 357.24,-55.09"/>
<text text-anchor="middle" x="322.5" y="-71.8" font-family="Noto Sans CJK SC" font-size="9.00">失败</text>
</g>
</g>
</svg>
