<?xml version="1.0" encoding="UTF-8" standalone="no"?>
<!DOCTYPE svg PUBLIC "-//W3C//DTD SVG 1.1//EN"
 "http://www.w3.org/Graphics/SVG/1.1/DTD/svg11.dtd">
<!-- Generated by graphviz version 2.43.0 (0)
 -->
<!-- Title: PlantV2BehaviorFlow Pages: 1 -->
<svg width="665pt" height="764pt"
 viewBox="0.00 0.00 664.70 764.20" xmlns="http://www.w3.org/2000/svg" xmlns:xlink="http://www.w3.org/1999/xlink">
<g id="graph0" class="graph" transform="scale(1 1) rotate(0) translate(21.6 742.6)">
<title>PlantV2BehaviorFlow</title>
<polygon fill="white" stroke="transparent" points="-21.6,21.6 -21.6,-742.6 643.1,-742.6 643.1,21.6 -21.6,21.6"/>
<!-- touch -->
<g id="node1" class="node">
<title>touch</title>
<path fill="#f5f3ff" stroke="#5b21b6" stroke-width="1.15" d="M160.5,-721C160.5,-721 54.5,-721 54.5,-721 48.5,-721 42.5,-715 42.5,-709 42.5,-709 42.5,-683 42.5,-683 42.5,-677 48.5,-671 54.5,-671 54.5,-671 160.5,-671 160.5,-671 166.5,-671 172.5,-677 172.5,-683 172.5,-683 172.5,-709 172.5,-709 172.5,-715 166.5,-721 160.5,-721"/>
<text text-anchor="middle" x="107.5" y="-705.2" font-family="Noto Sans CJK SC" font-size="11.00">触摸</text>
<text text-anchor="middle" x="107.5" y="-693.2" font-family="Noto Sans CJK SC" font-size="11.00">单击 Happy</text>
<text text-anchor="middle" x="107.5" y="-681.2" font-family="Noto Sans CJK SC" font-size="11.00">长按 Sleep / WakeUp</text>
</g>
<!-- gate -->
<g id="node5" class="node">
<title>gate</title>
<path fill="#fff7ed" stroke="#b45309" stroke-width="1.15" d="M363.98,-630.65C363.98,-630.65 215.02,-587.35 215.02,-587.35 209.26,-585.67 209.26,-582.33 215.02,-580.65 215.02,-580.65 363.98,-537.35 363.98,-537.35 369.74,-535.67 381.26,-535.67 387.02,-537.35 387.02,-537.35 535.98,-580.65 535.98,-580.65 541.74,-582.33 541.74,-585.67 535.98,-587.35 535.98,-587.35 387.02,-630.65 387.02,-630.65 381.26,-632.33 369.74,-632.33 363.98,-630.65"/>
<text text-anchor="middle" x="375.5" y="-593.2" font-family="Noto Sans CJK SC" font-size="11.00">允许启动？</text>
<text text-anchor="middle" x="375.5" y="-581.2" font-family="Noto Sans CJK SC" font-size="11.00">非 Booting / Fault / Updating</text>
<text text-anchor="middle" x="375.5" y="-569.2" font-family="Noto Sans CJK SC" font-size="11.00">且中断规则允许</text>
</g>
<!-- touch&#45;&gt;gate -->
<g id="edge1" class="edge">
<title>touch&#45;&gt;gate</title>
<path fill="none" stroke="#64748b" stroke-width="1.2" d="M165.98,-671C204.87,-655.03 256.36,-633.9 298.56,-616.58"/>
<polygon fill="#64748b" stroke="#64748b" stroke-width="1.2" points="299.7,-618.76 305.25,-613.83 297.84,-614.23 299.7,-618.76"/>
</g>
<!-- ble -->
<g id="node2" class="node">
<title>ble</title>
<path fill="#f5f3ff" stroke="#5b21b6" stroke-width="1.15" d="M360,-715C360,-715 217,-715 217,-715 211,-715 205,-709 205,-703 205,-703 205,-689 205,-689 205,-683 211,-677 217,-677 217,-677 360,-677 360,-677 366,-677 372,-683 372,-689 372,-689 372,-703 372,-703 372,-709 366,-715 360,-715"/>
<text text-anchor="middle" x="288.5" y="-699.2" font-family="Noto Sans CJK SC" font-size="11.00">BLE 命令</text>
<text text-anchor="middle" x="288.5" y="-687.2" font-family="Noto Sans CJK SC" font-size="11.00">SetBehavior / StopBehavior</text>
</g>
<!-- ble&#45;&gt;gate -->
<g id="edge2" class="edge">
<title>ble&#45;&gt;gate</title>
<path fill="none" stroke="#64748b" stroke-width="1.2" d="M302.87,-676.84C312.75,-664.34 326.35,-647.14 339.12,-631"/>
<polygon fill="#64748b" stroke="#64748b" stroke-width="1.2" points="341.35,-632.13 343.77,-625.12 337.51,-629.09 341.35,-632.13"/>
</g>
<!-- connected -->
<g id="node3" class="node">
<title>connected</title>
<path fill="#f5f3ff" stroke="#5b21b6" stroke-width="1.15" d="M509,-721C509,-721 416,-721 416,-721 410,-721 404,-715 404,-709 404,-709 404,-683 404,-683 404,-677 410,-671 416,-671 416,-671 509,-671 509,-671 515,-671 521,-677 521,-683 521,-683 521,-709 521,-709 521,-715 515,-721 509,-721"/>
<text text-anchor="middle" x="462.5" y="-705.2" font-family="Noto Sans CJK SC" font-size="11.00">BLE 加密完成</text>
<text text-anchor="middle" x="462.5" y="-693.2" font-family="Noto Sans CJK SC" font-size="11.00">Idle: Happy</text>
<text text-anchor="middle" x="462.5" y="-681.2" font-family="Noto Sans CJK SC" font-size="11.00">Sleeping: WakeUp</text>
</g>
<!-- connected&#45;&gt;gate -->
<g id="edge3" class="edge">
<title>connected&#45;&gt;gate</title>
<path fill="none" stroke="#64748b" stroke-width="1.2" d="M443.41,-670.86C434.13,-659.13 422.66,-644.63 411.81,-630.9"/>
<polygon fill="#64748b" stroke="#64748b" stroke-width="1.2" points="413.46,-629.05 407.2,-625.08 409.62,-632.09 413.46,-629.05"/>
</g>
<!-- timeout -->
<g id="node4" class="node">
<title>timeout</title>
<path fill="#f5f3ff" stroke="#5b21b6" stroke-width="1.15" d="M609.5,-715C609.5,-715 565.5,-715 565.5,-715 559.5,-715 553.5,-709 553.5,-703 553.5,-703 553.5,-689 553.5,-689 553.5,-683 559.5,-677 565.5,-677 565.5,-677 609.5,-677 609.5,-677 615.5,-677 621.5,-683 621.5,-689 621.5,-689 621.5,-703 621.5,-703 621.5,-709 615.5,-715 609.5,-715"/>
<text text-anchor="middle" x="587.5" y="-699.2" font-family="Noto Sans CJK SC" font-size="11.00">Idle 超时</text>
<text text-anchor="middle" x="587.5" y="-687.2" font-family="Noto Sans CJK SC" font-size="11.00">Sleep</text>
</g>
<!-- timeout&#45;&gt;gate -->
<g id="edge4" class="edge">
<title>timeout&#45;&gt;gate</title>
<path fill="none" stroke="#64748b" stroke-width="1.2" d="M553.44,-677.33C523.68,-661.88 479.58,-639.01 442.74,-619.89"/>
<polygon fill="#64748b" stroke="#64748b" stroke-width="1.2" points="443.76,-617.66 436.42,-616.61 441.51,-622.01 443.76,-617.66"/>
</g>
<!-- lifecycleBegin -->
<g id="node6" class="node">
<title>lifecycleBegin</title>
<path fill="#ede9fe" stroke="#5b21b6" stroke-width="1.15" d="M350,-488C350,-488 221,-488 221,-488 215,-488 209,-482 209,-476 209,-476 209,-462 209,-462 209,-456 215,-450 221,-450 221,-450 350,-450 350,-450 356,-450 362,-456 362,-462 362,-462 362,-476 362,-476 362,-482 356,-488 350,-488"/>
<text text-anchor="middle" x="285.5" y="-472.2" font-family="Noto Sans CJK SC" font-size="11.00">Lifecycle.begin_behavior</text>
<text text-anchor="middle" x="285.5" y="-460.2" font-family="Noto Sans CJK SC" font-size="11.00">&#45;&gt; Interacting</text>
</g>
<!-- gate&#45;&gt;lifecycleBegin -->
<g id="edge6" class="edge">
<title>gate&#45;&gt;lifecycleBegin</title>
<path fill="none" stroke="#64748b" stroke-width="1.2" d="M343.77,-543.16C330.66,-526.7 315.9,-508.17 304.52,-493.88"/>
<polygon fill="#64748b" stroke="#64748b" stroke-width="1.2" points="306.14,-491.98 299.86,-488.03 302.31,-495.04 306.14,-491.98"/>
<text text-anchor="middle" x="325.5" y="-508.8" font-family="Noto Sans CJK SC" font-size="9.00">是</text>
</g>
<!-- rejected -->
<g id="node13" class="node">
<title>rejected</title>
<path fill="#f1f5f9" stroke="#64748b" stroke-width="1.15" d="M525,-488C525,-488 406,-488 406,-488 400,-488 394,-482 394,-476 394,-476 394,-462 394,-462 394,-456 400,-450 406,-450 406,-450 525,-450 525,-450 531,-450 537,-456 537,-462 537,-462 537,-476 537,-476 537,-482 531,-488 525,-488"/>
<text text-anchor="middle" x="465.5" y="-472.2" font-family="Noto Sans CJK SC" font-size="11.00">保持原状态</text>
<text text-anchor="middle" x="465.5" y="-460.2" font-family="Noto Sans CJK SC" font-size="11.00">返回 Busy / InvalidState</text>
</g>
<!-- gate&#45;&gt;rejected -->
<g id="edge5" class="edge">
<title>gate&#45;&gt;rejected</title>
<path fill="none" stroke="#64748b" stroke-width="1.2" d="M407.23,-543.16C420.34,-526.7 435.1,-508.17 446.48,-493.88"/>
<polygon fill="#64748b" stroke="#64748b" stroke-width="1.2" points="448.69,-495.04 451.14,-488.03 444.86,-491.98 448.69,-495.04"/>
<text text-anchor="middle" x="441.5" y="-508.8" font-family="Noto Sans CJK SC" font-size="9.00">否</text>
</g>
<!-- plan -->
<g id="node7" class="node">
<title>plan</title>
<path fill="#ede9fe" stroke="#5b21b6" stroke-width="1.15" d="M365.5,-413C365.5,-413 205.5,-413 205.5,-413 199.5,-413 193.5,-407 193.5,-401 193.5,-401 193.5,-375 193.5,-375 193.5,-369 199.5,-363 205.5,-363 205.5,-363 365.5,-363 365.5,-363 371.5,-363 377.5,-369 377.5,-375 377.5,-375 377.5,-401 377.5,-401 377.5,-407 371.5,-413 365.5,-413"/>
<text text-anchor="middle" x="285.5" y="-397.2" font-family="Noto Sans CJK SC" font-size="11.00">BehaviorPolicy 映射</text>
<text text-anchor="middle" x="285.5" y="-385.2" font-family="Noto Sans CJK SC" font-size="11.00">WakeUp / Happy / Sleep / Error</text>
<text text-anchor="middle" x="285.5" y="-373.2" font-family="Noto Sans CJK SC" font-size="11.00">&#45;&gt; LightCue + HapticPattern</text>
</g>
<!-- lifecycleBegin&#45;&gt;plan -->
<g id="edge7" class="edge">
<title>lifecycleBegin&#45;&gt;plan</title>
<path fill="none" stroke="#64748b" stroke-width="1.2" d="M285.5,-449.68C285.5,-440.95 285.5,-430.26 285.5,-420.3"/>
<polygon fill="#64748b" stroke="#64748b" stroke-width="1.2" points="287.95,-420.21 285.5,-413.21 283.05,-420.21 287.95,-420.21"/>
</g>
<!-- execute -->
<g id="node8" class="node">
<title>execute</title>
<path fill="#ede9fe" stroke="#5b21b6" stroke-width="1.15" d="M359.5,-326C359.5,-326 211.5,-326 211.5,-326 205.5,-326 199.5,-320 199.5,-314 199.5,-314 199.5,-288 199.5,-288 199.5,-282 205.5,-276 211.5,-276 211.5,-276 359.5,-276 359.5,-276 365.5,-276 371.5,-282 371.5,-288 371.5,-288 371.5,-314 371.5,-314 371.5,-320 365.5,-326 359.5,-326"/>
<text text-anchor="middle" x="285.5" y="-310.2" font-family="Noto Sans CJK SC" font-size="11.00">BehaviorService.start_plan</text>
<text text-anchor="middle" x="285.5" y="-298.2" font-family="Noto Sans CJK SC" font-size="11.00">停止舵机，生成 execution_id</text>
<text text-anchor="middle" x="285.5" y="-286.2" font-family="Noto Sans CJK SC" font-size="11.00">启动非阻塞灯光与振动</text>
</g>
<!-- plan&#45;&gt;execute -->
<g id="edge8" class="edge">
<title>plan&#45;&gt;execute</title>
<path fill="none" stroke="#64748b" stroke-width="1.2" d="M285.5,-362.87C285.5,-353.72 285.5,-343.16 285.5,-333.43"/>
<polygon fill="#64748b" stroke="#64748b" stroke-width="1.2" points="287.95,-333.19 285.5,-326.19 283.05,-333.19 287.95,-333.19"/>
</g>
<!-- complete -->
<g id="node10" class="node">
<title>complete</title>
<path fill="#dcfce7" stroke="#15803d" stroke-width="1.15" d="M103,-224C103,-224 12,-224 12,-224 6,-224 0,-218 0,-212 0,-212 0,-198 0,-198 0,-192 6,-186 12,-186 12,-186 103,-186 103,-186 109,-186 115,-192 115,-198 115,-198 115,-212 115,-212 115,-218 109,-224 103,-224"/>
<text text-anchor="middle" x="57.5" y="-208.2" font-family="Noto Sans CJK SC" font-size="11.00">普通行为立即完成</text>
<text text-anchor="middle" x="57.5" y="-196.2" font-family="Noto Sans CJK SC" font-size="11.00">Lifecycle &#45;&gt; Idle</text>
</g>
<!-- execute&#45;&gt;complete -->
<g id="edge10" class="edge">
<title>execute&#45;&gt;complete</title>
<path fill="none" stroke="#64748b" stroke-width="1.2" d="M227.08,-275.91C190.34,-260.77 143.41,-241.42 108.24,-226.92"/>
<polygon fill="#64748b" stroke="#64748b" stroke-width="1.2" points="108.77,-224.49 101.37,-224.08 106.9,-229.02 108.77,-224.49"/>
<text text-anchor="middle" x="192.5" y="-250.8" font-family="Noto Sans CJK SC" font-size="9.00">Happy</text>
</g>
<!-- sleeping -->
<g id="node11" class="node">
<title>sleeping</title>
<path fill="#dbeafe" stroke="#1d4ed8" stroke-width="1.15" d="M263.5,-230C263.5,-230 159.5,-230 159.5,-230 153.5,-230 147.5,-224 147.5,-218 147.5,-218 147.5,-192 147.5,-192 147.5,-186 153.5,-180 159.5,-180 159.5,-180 263.5,-180 263.5,-180 269.5,-180 275.5,-186 275.5,-192 275.5,-192 275.5,-218 275.5,-218 275.5,-224 269.5,-230 263.5,-230"/>
<text text-anchor="middle" x="211.5" y="-214.2" font-family="Noto Sans CJK SC" font-size="11.00">Sleep 完成</text>
<text text-anchor="middle" x="211.5" y="-202.2" font-family="Noto Sans CJK SC" font-size="11.00">Lifecycle &#45;&gt; Sleeping</text>
<text text-anchor="middle" x="211.5" y="-190.2" font-family="Noto Sans CJK SC" font-size="11.00">允许 Light Sleep</text>
</g>
<!-- execute&#45;&gt;sleeping -->
<g id="edge11" class="edge">
<title>execute&#45;&gt;sleeping</title>
<path fill="none" stroke="#64748b" stroke-width="1.2" d="M266.44,-275.79C256.86,-263.62 245.16,-248.76 235.03,-235.88"/>
<polygon fill="#64748b" stroke="#64748b" stroke-width="1.2" points="236.75,-234.11 230.49,-230.13 232.9,-237.14 236.75,-234.11"/>
<text text-anchor="middle" x="263.5" y="-250.8" font-family="Noto Sans CJK SC" font-size="9.00">Sleep</text>
</g>
<!-- wake -->
<g id="node12" class="node">
<title>wake</title>
<path fill="#dbeafe" stroke="#1d4ed8" stroke-width="1.15" d="M399,-230C399,-230 320,-230 320,-230 314,-230 308,-224 308,-218 308,-218 308,-192 308,-192 308,-186 314,-180 320,-180 320,-180 399,-180 399,-180 405,-180 411,-186 411,-192 411,-192 411,-218 411,-218 411,-224 405,-230 399,-230"/>
<text text-anchor="middle" x="359.5" y="-214.2" font-family="Noto Sans CJK SC" font-size="11.00">WakeUp 前</text>
<text text-anchor="middle" x="359.5" y="-202.2" font-family="Noto Sans CJK SC" font-size="11.00">恢复主动电源域</text>
<text text-anchor="middle" x="359.5" y="-190.2" font-family="Noto Sans CJK SC" font-size="11.00">完成 &#45;&gt; Idle</text>
</g>
<!-- execute&#45;&gt;wake -->
<g id="edge9" class="edge">
<title>execute&#45;&gt;wake</title>
<path fill="none" stroke="#64748b" stroke-width="1.2" d="M304.56,-275.79C314.14,-263.62 325.84,-248.76 335.97,-235.88"/>
<polygon fill="#64748b" stroke="#64748b" stroke-width="1.2" points="338.1,-237.14 340.51,-230.13 334.25,-234.11 338.1,-237.14"/>
<text text-anchor="middle" x="343" y="-250.8" font-family="Noto Sans CJK SC" font-size="9.00">WakeUp</text>
</g>
<!-- fault -->
<g id="node14" class="node">
<title>fault</title>
<path fill="#fee2e2" stroke="#b91c1c" stroke-width="1.15" d="M469,-50C469,-50 316,-50 316,-50 310,-50 304,-44 304,-38 304,-38 304,-12 304,-12 304,-6 310,0 316,0 316,0 469,0 469,0 475,0 481,-6 481,-12 481,-12 481,-38 481,-38 481,-44 475,-50 469,-50"/>
<text text-anchor="middle" x="392.5" y="-34.2" font-family="Noto Sans CJK SC" font-size="11.00">输出失败、超时或 FaultRaised</text>
<text text-anchor="middle" x="392.5" y="-22.2" font-family="Noto Sans CJK SC" font-size="11.00">停止舵机/灯光/振动</text>
<text text-anchor="middle" x="392.5" y="-10.2" font-family="Noto Sans CJK SC" font-size="11.00">Error + Warning；&#45;&gt; Fault</text>
</g>
<!-- execute&#45;&gt;fault -->
<g id="edge12" class="edge">
<title>execute&#45;&gt;fault</title>
<path fill="none" stroke="#dc2626" stroke-width="1.2" d="M370.86,-275.89C392.74,-265.43 413.68,-250.67 426.5,-230 460.08,-175.83 430.75,-98.71 409.6,-56.5"/>
<polygon fill="#dc2626" stroke="#dc2626" stroke-width="1.2" points="411.66,-55.15 406.29,-50.03 407.3,-57.38 411.66,-55.15"/>
<text text-anchor="middle" x="475" y="-154.8" font-family="Noto Sans CJK SC" font-size="9.00">Error / 启动失败</text>
</g>
<!-- outputTick -->
<g id="node9" class="node">
<title>outputTick</title>
<path fill="#f8fafc" stroke="#64748b" stroke-width="1.15" d="M342,-134C342,-134 195,-134 195,-134 189,-134 183,-128 183,-122 183,-122 183,-108 183,-108 183,-102 189,-96 195,-96 195,-96 342,-96 342,-96 348,-96 354,-102 354,-108 354,-108 354,-122 354,-122 354,-128 348,-134 342,-134"/>
<text text-anchor="middle" x="268.5" y="-118.2" font-family="Noto Sans CJK SC" font-size="11.00">每个 tick</text>
<text text-anchor="middle" x="268.5" y="-106.2" font-family="Noto Sans CJK SC" font-size="11.00">灯光仲裁与振动动画继续推进</text>
</g>
<!-- outputTick&#45;&gt;fault -->
<g id="edge16" class="edge">
<title>outputTick&#45;&gt;fault</title>
<path fill="none" stroke="#dc2626" stroke-width="1.2" d="M293.89,-95.98C310.84,-83.95 333.49,-67.88 352.8,-54.18"/>
<polygon fill="#dc2626" stroke="#dc2626" stroke-width="1.2" points="354.38,-56.06 358.67,-50.01 351.55,-52.06 354.38,-56.06"/>
<text text-anchor="middle" x="349" y="-70.8" font-family="Noto Sans CJK SC" font-size="9.00">tick 失败</text>
</g>
<!-- complete&#45;&gt;outputTick -->
<g id="edge14" class="edge">
<title>complete&#45;&gt;outputTick</title>
<path fill="none" stroke="#64748b" stroke-width="1.2" d="M100.71,-185.98C134.87,-171.73 182.62,-151.82 218.44,-136.88"/>
<polygon fill="#64748b" stroke="#64748b" stroke-width="1.2" points="219.47,-139.1 224.99,-134.15 217.58,-134.58 219.47,-139.1"/>
</g>
<!-- sleeping&#45;&gt;outputTick -->
<g id="edge15" class="edge">
<title>sleeping&#45;&gt;outputTick</title>
<path fill="none" stroke="#64748b" stroke-width="1.2" d="M227.08,-179.95C235.05,-167.65 244.73,-152.7 252.73,-140.35"/>
<polygon fill="#64748b" stroke="#64748b" stroke-width="1.2" points="254.99,-141.36 256.74,-134.15 250.88,-138.7 254.99,-141.36"/>
</g>
<!-- wake&#45;&gt;outputTick -->
<g id="edge13" class="edge">
<title>wake&#45;&gt;outputTick</title>
<path fill="none" stroke="#64748b" stroke-width="1.2" d="M334.63,-179.95C321.56,-167.31 305.59,-151.87 292.63,-139.33"/>
<polygon fill="#64748b" stroke="#64748b" stroke-width="1.2" points="294.01,-137.26 287.27,-134.15 290.6,-140.78 294.01,-137.26"/>
</g>
</g>
</svg>
